  0
SECTION
  2
HEADER
  9
$ACADVER
  1
AC1009
  9
$DWGCODEPAGE
  3
ANSI_1251
  9
$HANDSEED
  5
2BC
  0
ENDSEC
  0
SECTION
  2
TABLES
  0
TABLE
  2
VPORT
 70
        1
  0
VPORT
  2
*ACTIVE
 70
     0
 10
0.0
 20
0.0
 11
1.0
 21
1.0
 12
464.07916259765625
 22
328.08334350585938
 13
0.0
 23
0.0
 14
1.0
 24
1.0
 15
0.0
 25
0.0
 16
0.0
 26
0.0
 36
1.0
 17
0.0
 27
0.0
 37
1.0
 40
656.16668701171875
 41
1.4145160727715154
 42
50.0
 43
0.0
 44
0.0
 50
0.0
 51
0.0
 71
     0
 72
   100
 73
     1
 74
     0
 75
     1
 76
     0
 77
     0
 78
     0
  0
ENDTAB
  0
TABLE
  2
LTYPE
 70
        1
  0
LTYPE
  2
CONTINUOUS
 70
     0
  3
Solid line
 72
    65
 73
     0
 40
0.0
  0
ENDTAB
  0
TABLE
  2
LAYER
 70
        1
  0
LAYER
  2
0
 70
     0
 62
     7
  6
CONTINUOUS
  0
ENDTAB
  0
TABLE
  2
STYLE
 70
        1
  0
STYLE
  2
Standard
 70
     0
 40
0.0
 41
0.0
 50
0.0
 71
     0
 42
0.0
  3
txt
  0
ENDTAB
  0
TABLE
  2
VIEW
 70
        0
  0
ENDTAB
  0
TABLE
  2
UCS
 70
        0
  0
ENDTAB
  0
TABLE
  2
APPID
 70
        1
  0
APPID
  2
ACAD
 70
     0
  0
ENDTAB
  0
TABLE
  2
DIMSTYLE
 70
        0
  0
ENDTAB
  0
TABLE
  2
BLOCK_RECORD
 70
        0
  0
ENDTAB
  0
ENDSEC
  0
SECTION
  2
ENTITIES
  0
3DFACE
  5
01
100
AcDbEntity
  8
0
 62
     7
100
AcDbFace
 10
-13481.052485812232
 20
13951.462622131616
 30
11439.948750911224
 11
-13478.471570544458
 21
13258.968097638266
 31
11439.948750911224
 12
-13453.542095230243
 22
13951.564766850504
 32
11222.175329683287
 13
-13481.052485812232
 23
13951.462622131616
 33
11439.948750911224
  0
3DFACE
  5
07
100
AcDbEntity
  8
0
 62
     7
100
AcDbFace
 10
-13453.542095230243
 20
13951.564766850504
 30
11222.175329683287
 11
-13478.471570544458
 21
13258.968097638266
 31
11439.948750911224
 12
-13450.961179962469
 22
13259.071122915077
 32
11222.175329683287
 13
-13453.542095230243
 23
13951.564766850504
 33
11222.175329683287
  0
3DFACE
  5
0D
100
AcDbEntity
  8
0
 62
     7
100
AcDbFace
 10
-13453.542095230243
 20
13951.564766850504
 30
11222.175329683287
 11
-13450.961179962469
 21
13259.071122915077
 31
11222.175329683287
 12
-13481.052485812232
 22
13951.462622131616
 32
11004.401908455349
 13
-13453.542095230243
 23
13951.564766850504
 33
11222.175329683287
  0
3DFACE
  5
13
100
AcDbEntity
  8
0
 62
     7
100
AcDbFace
 10
-13481.052485812232
 20
13951.462622131616
 30
11004.401908455349
 11
-13450.961179962469
 21
13259.071122915077
 31
11222.175329683287
 12
-13478.471570544458
 22
13258.968097638266
 32
11004.401908455349
 13
-13481.052485812232
 23
13951.462622131616
 33
11004.401908455349
  0
3DFACE
  5
19
100
AcDbEntity
  8
0
 62
     7
100
AcDbFace
 10
-13481.052485812232
 20
13951.462622131616
 30
11004.401908455349
 11
-13478.471570544458
 21
13258.968097638266
 31
11004.401908455349
 12
-13561.856883474229
 22
13951.161471322479
 32
10800.311476768846
 13
-13481.052485812232
 23
13951.462622131616
 33
11004.401908455349
  0
3DFACE
  5
1F
100
AcDbEntity
  8
0
 62
     7
100
AcDbFace
 10
-13561.856883474229
 20
13951.161471322479
 30
10800.311476768846
 11
-13478.471570544458
 21
13258.968097638266
 31
11004.401908455349
 12
-13559.275968206455
 22
13258.666946829129
 32
10800.311476768846
 13
-13561.856883474229
 23
13951.161471322479
 33
10800.311476768846
  0
3DFACE
  5
25
100
AcDbEntity
  8
0
 62
     7
100
AcDbFace
 10
-13561.856883474229
 20
13951.161471322479
 30
10800.311476768846
 11
-13559.275968206455
 21
13258.666946829129
 31
10800.311476768846
 12
-13690.877991241148
 22
13950.680686697366
 32
10622.728480191798
 13
-13561.856883474229
 23
13951.161471322479
 33
10800.311476768846
  0
3DFACE
  5
2B
100
AcDbEntity
  8
0
 62
     7
100
AcDbFace
 10
-13690.877991241148
 20
13950.680686697366
 30
10622.728480191798
 11
-13559.275968206455
 21
13258.666946829129
 31
10800.311476768846
 12
-13688.297075973374
 22
13258.186162204018
 32
10622.728480191798
 13
-13690.877991241148
 23
13950.680686697366
 33
10622.728480191798
  0
3DFACE
  5
31
100
AcDbEntity
  8
0
 62
     7
100
AcDbFace
 10
-13690.877991241148
 20
13950.680686697366
 30
10622.728480191798
 11
-13688.297075973374
 21
13258.186162204018
 31
10622.728480191798
 12
-13860.007631772261
 22
13950.050207225608
 32
10482.811348704838
 13
-13690.877991241148
 23
13950.680686697366
 33
10622.728480191798
  0
3DFACE
  5
37
100
AcDbEntity
  8
0
 62
     7
100
AcDbFace
 10
-13860.007631772261
 20
13950.050207225608
 30
10482.811348704838
 11
-13688.297075973374
 21
13258.186162204018
 31
10622.728480191798
 12
-13857.426716504488
 22
13257.555682732258
 32
10482.811348704838
 13
-13860.007631772261
 23
13950.050207225608
 33
10482.811348704838
  0
3DFACE
  5
3D
100
AcDbEntity
  8
0
 62
     7
100
AcDbFace
 10
-13860.007631772261
 20
13950.050207225608
 30
10482.811348704838
 11
-13857.426716504488
 21
13257.555682732258
 31
10482.811348704838
 12
-14058.620112629415
 22
13949.309658013666
 32
10389.350692037817
 13
-13860.007631772261
 23
13950.050207225608
 33
10482.811348704838
  0
3DFACE
  5
43
100
AcDbEntity
  8
0
 62
     7
100
AcDbFace
 10
-14058.620112629415
 20
13949.309658013666
 30
10389.350692037817
 11
-13857.426716504488
 21
13257.555682732258
 31
10482.811348704838
 12
-14056.039197361641
 22
13256.816014078238
 32
10389.350692037817
 13
-14058.620112629415
 23
13949.309658013666
 33
10389.350692037817
  0
3DFACE
  5
49
100
AcDbEntity
  8
0
 62
     7
100
AcDbFace
 10
-14058.620112629415
 20
13949.309658013666
 30
10389.350692037817
 11
-14056.039197361641
 21
13256.816014078238
 31
10389.350692037817
 12
-14274.235286391875
 22
13948.505708631381
 32
10348.219831526818
 13
-14058.620112629415
 23
13949.309658013666
 33
10389.350692037817
  0
3DFACE
  5
4F
100
AcDbEntity
  8
0
 62
     7
100
AcDbFace
 10
-14274.235286391875
 20
13948.505708631381
 30
10348.219831526818
 11
-14056.039197361641
 21
13256.816014078238
 31
10389.350692037817
 12
-14271.654371124101
 22
13256.012064695953
 32
10348.219831526818
 13
-14274.235286391875
 23
13948.505708631381
 33
10348.219831526818
  0
3DFACE
  5
55
100
AcDbEntity
  8
0
 62
     7
100
AcDbFace
 10
-14274.235286391875
 20
13948.505708631381
 30
10348.219831526818
 11
-14271.654371124101
 21
13256.012064695953
 31
10348.219831526818
 12
-14493.30488888019
 22
13947.689431438195
 32
10362.002324113377
 13
-14274.235286391875
 23
13948.505708631381
 33
10348.219831526818
  0
3DFACE
  5
5B
100
AcDbEntity
  8
0
 62
     7
100
AcDbFace
 10
-14493.30488888019
 20
13947.689431438195
 30
10362.002324113377
 11
-14271.654371124101
 21
13256.012064695953
 31
10348.219831526818
 12
-14490.723093054494
 22
13255.195787502769
 32
10362.002324113377
 13
-14493.30488888019
 23
13947.689431438195
 33
10362.002324113377
  0
3DFACE
  5
61
100
AcDbEntity
  8
0
 62
     7
100
AcDbFace
 10
-14493.30488888019
 20
13947.689431438195
 30
10362.002324113377
 11
-14490.723093054494
 21
13255.195787502769
 31
10362.002324113377
 12
-14702.064038666229
 22
13946.911898793554
 32
10429.83346191863
 13
-14493.30488888019
 23
13947.689431438195
 33
10362.002324113377
  0
3DFACE
  5
67
100
AcDbEntity
  8
0
 62
     7
100
AcDbFace
 10
-14702.064038666229
 20
13946.911898793554
 30
10429.83346191863
 11
-14490.723093054494
 21
13255.195787502769
 31
10362.002324113377
 12
-14699.484003956375
 22
13254.417374300205
 32
10429.83346191863
 13
-14702.064038666229
 23
13946.911898793554
 33
10429.83346191863
  0
3DFACE
  5
6D
100
AcDbEntity
  8
0
 62
     7
100
AcDbFace
 10
-14702.064038666229
 20
13946.911898793554
 30
10429.83346191863
 11
-14699.484003956375
 21
13254.417374300205
 31
10429.83346191863
 12
-14887.396825509972
 22
13946.220660825215
 32
10547.449583486909
 13
-14702.064038666229
 23
13946.911898793554
 33
10429.83346191863
  0
3DFACE
  5
73
100
AcDbEntity
  8
0
 62
     7
100
AcDbFace
 10
-14887.396825509972
 20
13946.220660825215
 30
10547.449583486909
 11
-14699.484003956375
 21
13254.417374300205
 31
10429.83346191863
 12
-14884.816790800118
 22
13253.727016889787
 32
10547.449583486909
 13
-14887.396825509972
 23
13946.220660825215
 33
10547.449583486909
  0
3DFACE
  5
79
100
AcDbEntity
  8
0
 62
     7
100
AcDbFace
 10
-14887.396825509972
 20
13946.220660825215
 30
10547.449583486909
 11
-14884.816790800118
 21
13253.727016889787
 31
10547.449583486909
 12
-15037.656990342301
 22
13945.660625987171
 32
10707.461046741391
 13
-14887.396825509972
 23
13946.220660825215
 33
10547.449583486909
  0
3DFACE
  5
7F
100
AcDbEntity
  8
0
 62
     7
100
AcDbFace
 10
-15037.656990342301
 20
13945.660625987171
 30
10707.461046741391
 11
-14884.816790800118
 21
13253.727016889787
 31
10547.449583486909
 12
-15035.075194516605
 22
13253.166982051744
 32
10707.461046741391
 13
-15037.656990342301
 23
13945.660625987171
 33
10707.461046741391
  0
3DFACE
  5
85
100
AcDbEntity
  8
0
 62
     7
100
AcDbFace
 10
-15037.656990342301
 20
13945.660625987171
 30
10707.461046741391
 11
-15035.075194516605
 21
13253.166982051744
 31
10707.461046741391
 12
-15143.403191129413
 22
13945.267016596283
 32
10899.814521892866
 13
-15037.656990342301
 23
13945.660625987171
 33
10707.461046741391
  0
3DFACE
  5
8B
100
AcDbEntity
  8
0
 62
     7
100
AcDbFace
 10
-15143.403191129413
 20
13945.267016596283
 30
10899.814521892866
 11
-15035.075194516605
 21
13253.166982051744
 31
10707.461046741391
 12
-15140.823156419559
 22
13252.772492102933
 32
10899.814521892866
 13
-15143.403191129413
 23
13945.267016596283
 33
10899.814521892866
  0
3DFACE
  5
91
100
AcDbEntity
  8
0
 62
     7
100
AcDbFace
 10
-15143.403191129413
 20
13945.267016596283
 30
10899.814521892866
 11
-15140.823156419559
 21
13252.772492102933
 31
10899.814521892866
 12
-15197.990737796035
 22
13945.063607716427
 32
11112.42259035357
 13
-15143.403191129413
 23
13945.267016596283
 33
10899.814521892866
  0
3DFACE
  5
97
100
AcDbEntity
  8
0
 62
     7
100
AcDbFace
 10
-15197.990737796035
 20
13945.063607716427
 30
11112.42259035357
 11
-15140.823156419559
 21
13252.772492102933
 31
10899.814521892866
 12
-15195.410703086181
 22
13252.569083223079
 32
11112.42259035357
 13
-15197.990737796035
 23
13945.063607716427
 33
11112.42259035357
  0
3DFACE
  5
9D
100
AcDbEntity
  8
0
 62
     7
100
AcDbFace
 10
-15197.990737796035
 20
13945.063607716427
 30
11112.42259035357
 11
-15195.410703086181
 21
13252.569083223079
 31
11112.42259035357
 12
-15197.990737796035
 22
13945.063607716427
 32
11331.927188455082
 13
-15197.990737796035
 23
13945.063607716427
 33
11112.42259035357
  0
3DFACE
  5
A3
100
AcDbEntity
  8
0
 62
     7
100
AcDbFace
 10
-15197.990737796035
 20
13945.063607716427
 30
11331.927188455082
 11
-15195.410703086181
 21
13252.569083223079
 31
11112.42259035357
 12
-15195.410703086181
 22
13252.569083223079
 32
11331.927188455082
 13
-15197.990737796035
 23
13945.063607716427
 33
11331.927188455082
  0
3DFACE
  5
A9
100
AcDbEntity
  8
0
 62
     7
100
AcDbFace
 10
-15197.990737796035
 20
13945.063607716427
 30
11331.927188455082
 11
-15195.410703086181
 21
13252.569083223079
 31
11331.927188455082
 12
-15143.403191129413
 22
13945.267016596283
 32
11544.536137473706
 13
-15197.990737796035
 23
13945.063607716427
 33
11331.927188455082
  0
3DFACE
  5
AF
100
AcDbEntity
  8
0
 62
     7
100
AcDbFace
 10
-15143.403191129413
 20
13945.267016596283
 30
11544.536137473706
 11
-15195.410703086181
 21
13252.569083223079
 31
11331.927188455082
 12
-15140.823156419559
 22
13252.772492102933
 32
11544.536137473706
 13
-15143.403191129413
 23
13945.267016596283
 33
11544.536137473706
  0
3DFACE
  5
B5
100
AcDbEntity
  8
0
 62
     7
100
AcDbFace
 10
-15143.403191129413
 20
13945.267016596283
 30
11544.536137473706
 11
-15140.823156419559
 21
13252.772492102933
 31
11544.536137473706
 12
-15037.656990342301
 22
13945.660625987171
 32
11736.88873206726
 13
-15143.403191129413
 23
13945.267016596283
 33
11544.536137473706
  0
3DFACE
  5
BB
100
AcDbEntity
  8
0
 62
     7
100
AcDbFace
 10
-15037.656990342301
 20
13945.660625987171
 30
11736.88873206726
 11
-15140.823156419559
 21
13252.772492102933
 31
11544.536137473706
 12
-15035.075194516605
 22
13253.166982051744
 32
11736.88873206726
 13
-15037.656990342301
 23
13945.660625987171
 33
11736.88873206726
  0
3DFACE
  5
C1
100
AcDbEntity
  8
0
 62
     7
100
AcDbFace
 10
-15037.656990342301
 20
13945.660625987171
 30
11736.88873206726
 11
-15035.075194516605
 21
13253.166982051744
 31
11736.88873206726
 12
-14887.396825509972
 22
13946.220660825215
 32
11896.901075879665
 13
-15037.656990342301
 23
13945.660625987171
 33
11736.88873206726
  0
3DFACE
  5
C7
100
AcDbEntity
  8
0
 62
     7
100
AcDbFace
 10
-14887.396825509972
 20
13946.220660825215
 30
11896.901075879665
 11
-15035.075194516605
 21
13253.166982051744
 31
11736.88873206726
 12
-14884.816790800118
 22
13253.727016889787
 32
11896.901075879665
 13
-14887.396825509972
 23
13946.220660825215
 33
11896.901075879665
  0
3DFACE
  5
CD
100
AcDbEntity
  8
0
 62
     7
100
AcDbFace
 10
-14887.396825509972
 20
13946.220660825215
 30
11896.901075879665
 11
-14884.816790800118
 21
13253.727016889787
 31
11896.901075879665
 12
-14702.064038666229
 22
13946.911898793554
 32
12014.517197447944
 13
-14887.396825509972
 23
13946.220660825215
 33
11896.901075879665
  0
3DFACE
  5
D3
100
AcDbEntity
  8
0
 62
     7
100
AcDbFace
 10
-14702.064038666229
 20
13946.911898793554
 30
12014.517197447944
 11
-14884.816790800118
 21
13253.727016889787
 31
11896.901075879665
 12
-14699.484003956375
 22
13254.417374300205
 32
12014.517197447944
 13
-14702.064038666229
 23
13946.911898793554
 33
12014.517197447944
  0
3DFACE
  5
D9
100
AcDbEntity
  8
0
 62
     7
100
AcDbFace
 10
-14702.064038666229
 20
13946.911898793554
 30
12014.517197447944
 11
-14699.484003956375
 21
13254.417374300205
 31
12014.517197447944
 12
-14493.30488888019
 22
13947.689431438195
 32
12082.347454695275
 13
-14702.064038666229
 23
13946.911898793554
 33
12014.517197447944
  0
3DFACE
  5
DF
100
AcDbEntity
  8
0
 62
     7
100
AcDbFace
 10
-14493.30488888019
 20
13947.689431438195
 30
12082.347454695275
 11
-14699.484003956375
 21
13254.417374300205
 31
12014.517197447944
 12
-14490.723093054494
 22
13255.195787502769
 32
12082.347454695275
 13
-14493.30488888019
 23
13947.689431438195
 33
12082.347454695275
  0
3DFACE
  5
E5
100
AcDbEntity
  8
0
 62
     7
100
AcDbFace
 10
-14493.30488888019
 20
13947.689431438195
 30
12082.347454695275
 11
-14490.723093054494
 21
13255.195787502769
 31
12082.347454695275
 12
-14274.235286391875
 22
13948.505708631381
 32
12096.130827839756
 13
-14493.30488888019
 23
13947.689431438195
 33
12082.347454695275
  0
3DFACE
  5
EB
100
AcDbEntity
  8
0
 62
     7
100
AcDbFace
 10
-14274.235286391875
 20
13948.505708631381
 30
12096.130827839756
 11
-14490.723093054494
 21
13255.195787502769
 31
12082.347454695275
 12
-14271.654371124101
 22
13256.012064695953
 32
12096.130827839756
 13
-14274.235286391875
 23
13948.505708631381
 33
12096.130827839756
  0
3DFACE
  5
F1
100
AcDbEntity
  8
0
 62
     7
100
AcDbFace
 10
-14274.235286391875
 20
13948.505708631381
 30
12096.130827839756
 11
-14271.654371124101
 21
13256.012064695953
 31
12096.130827839756
 12
-14058.620112629415
 22
13949.309658013666
 32
12054.999967328755
 13
-14274.235286391875
 23
13948.505708631381
 33
12096.130827839756
  0
3DFACE
  5
F7
100
AcDbEntity
  8
0
 62
     7
100
AcDbFace
 10
-14058.620112629415
 20
13949.309658013666
 30
12054.999967328755
 11
-14271.654371124101
 21
13256.012064695953
 31
12096.130827839756
 12
-14056.039197361641
 22
13256.816014078238
 32
12054.999967328755
 13
-14058.620112629415
 23
13949.309658013666
 33
12054.999967328755
  0
3DFACE
  5
FD
100
AcDbEntity
  8
0
 62
     7
100
AcDbFace
 10
-14058.620112629415
 20
13949.309658013666
 30
12054.999967328755
 11
-14056.039197361641
 21
13256.816014078238
 31
12054.999967328755
 12
-13860.007631772261
 22
13950.050207225608
 32
11961.539310661734
 13
-14058.620112629415
 23
13949.309658013666
 33
12054.999967328755
  0
3DFACE
  5
103
100
AcDbEntity
  8
0
 62
     7
100
AcDbFace
 10
-13860.007631772261
 20
13950.050207225608
 30
11961.539310661734
 11
-14056.039197361641
 21
13256.816014078238
 31
12054.999967328755
 12
-13857.426716504488
 22
13257.555682732258
 32
11961.539310661734
 13
-13860.007631772261
 23
13950.050207225608
 33
11961.539310661734
  0
3DFACE
  5
109
100
AcDbEntity
  8
0
 62
     7
100
AcDbFace
 10
-13860.007631772261
 20
13950.050207225608
 30
11961.539310661734
 11
-13857.426716504488
 21
13257.555682732258
 31
11961.539310661734
 12
-13690.877991241148
 22
13950.680686697366
 32
11821.622179174776
 13
-13860.007631772261
 23
13950.050207225608
 33
11961.539310661734
  0
3DFACE
  5
10F
100
AcDbEntity
  8
0
 62
     7
100
AcDbFace
 10
-13690.877991241148
 20
13950.680686697366
 30
11821.622179174776
 11
-13857.426716504488
 21
13257.555682732258
 31
11961.539310661734
 12
-13688.297075973374
 22
13258.186162204018
 32
11821.622179174776
 13
-13690.877991241148
 23
13950.680686697366
 33
11821.622179174776
  0
3DFACE
  5
115
100
AcDbEntity
  8
0
 62
     7
100
AcDbFace
 10
-13690.877991241148
 20
13950.680686697366
 30
11821.622179174776
 11
-13688.297075973374
 21
13258.186162204018
 31
11821.622179174776
 12
-13561.856883474229
 22
13951.161471322479
 32
11644.039182597728
 13
-13690.877991241148
 23
13950.680686697366
 33
11821.622179174776
  0
3DFACE
  5
11B
100
AcDbEntity
  8
0
 62
     7
100
AcDbFace
 10
-13561.856883474229
 20
13951.161471322479
 30
11644.039182597728
 11
-13688.297075973374
 21
13258.186162204018
 31
11821.622179174776
 12
-13559.275968206455
 22
13258.666946829129
 32
11644.039182597728
 13
-13561.856883474229
 23
13951.161471322479
 33
11644.039182597728
  0
3DFACE
  5
121
100
AcDbEntity
  8
0
 62
     7
100
AcDbFace
 10
-13561.856883474229
 20
13951.161471322479
 30
11644.039182597728
 11
-13559.275968206455
 21
13258.666946829129
 31
11644.039182597728
 12
-13481.052485812232
 22
13951.462622131616
 32
11439.948750911224
 13
-13561.856883474229
 23
13951.161471322479
 33
11644.039182597728
  0
3DFACE
  5
127
100
AcDbEntity
  8
0
 62
     7
100
AcDbFace
 10
-13481.052485812232
 20
13951.462622131616
 30
11439.948750911224
 11
-13559.275968206455
 21
13258.666946829129
 31
11644.039182597728
 12
-13478.471570544458
 22
13258.968097638266
 32
11439.948750911224
 13
-13481.052485812232
 23
13951.462622131616
 33
11439.948750911224
  0
3DFACE
  5
12D
100
AcDbEntity
  8
0
 62
     7
100
AcDbFace
 10
-25029.828509677725
 20
13215.915859742659
 30
16813.873109094566
 11
-25029.828509677725
 21
13215.915859742659
 31
9990.4509091569107
 12
-25032.408544387577
 22
13908.409503678087
 32
16813.873109094566
 13
-25029.828509677725
 23
13215.915859742659
 33
16813.873109094566
  0
3DFACE
  5
133
100
AcDbEntity
  8
0
 62
     7
100
AcDbFace
 10
-25032.408544387577
 20
13908.409503678087
 30
16813.873109094566
 11
-25029.828509677725
 21
13215.915859742659
 31
9990.4509091569107
 12
-25032.408544387577
 22
13908.409503678087
 32
9990.4509091569107
 13
-25032.408544387577
 23
13908.409503678087
 33
16813.873109094566
  0
3DFACE
  5
139
100
AcDbEntity
  8
0
 62
     7
100
AcDbFace
 10
1838.0211584220665
 20
13316.053787128047
 30
16813.873109094566
 11
-25029.828509677725
 21
13215.915859742659
 31
16813.873109094566
 12
1835.4401330845517
 22
14008.547431063475
 32
16813.873109094566
 13
1838.0211584220665
 23
13316.053787128047
 33
16813.873109094566
  0
3DFACE
  5
13F
100
AcDbEntity
  8
0
 62
     7
100
AcDbFace
 10
1835.4401330845517
 20
14008.547431063475
 30
16813.873109094566
 11
-25029.828509677725
 21
13215.915859742659
 31
16813.873109094566
 12
-25032.408544387577
 22
13908.409503678087
 32
16813.873109094566
 13
1835.4401330845517
 23
14008.547431063475
 33
16813.873109094566
  0
3DFACE
  5
145
100
AcDbEntity
  8
0
 62
     7
100
AcDbFace
 10
1838.0211584220665
 20
13316.053787128047
 30
9990.4509091569107
 11
1838.0211584220665
 21
13316.053787128047
 31
16813.873109094566
 12
1835.4401330845517
 22
14008.547431063475
 32
9990.4509091569107
 13
1838.0211584220665
 23
13316.053787128047
 33
9990.4509091569107
  0
3DFACE
  5
14B
100
AcDbEntity
  8
0
 62
     7
100
AcDbFace
 10
1835.4401330845517
 20
14008.547431063475
 30
9990.4509091569107
 11
1838.0211584220665
 21
13316.053787128047
 31
16813.873109094566
 12
1835.4401330845517
 22
14008.547431063475
 32
16813.873109094566
 13
1835.4401330845517
 23
14008.547431063475
 33
9990.4509091569107
  0
3DFACE
  5
151
100
AcDbEntity
  8
0
 62
     7
100
AcDbFace
 10
-25029.828509677725
 20
13215.915859742659
 30
9990.4509091569107
 11
1838.0211584220665
 21
13316.053787128047
 31
9990.4509091569107
 12
-25032.408544387577
 22
13908.409503678087
 32
9990.4509091569107
 13
-25029.828509677725
 23
13215.915859742659
 33
9990.4509091569107
  0
3DFACE
  5
157
100
AcDbEntity
  8
0
 62
     7
100
AcDbFace
 10
-25032.408544387577
 20
13908.409503678087
 30
9990.4509091569107
 11
1838.0211584220665
 21
13316.053787128047
 31
9990.4509091569107
 12
1835.4401330845517
 22
14008.547431063475
 32
9990.4509091569107
 13
-25032.408544387577
 23
13908.409503678087
 33
9990.4509091569107
  0
3DFACE
  5
15D
100
AcDbEntity
  8
0
 62
     7
100
AcDbFace
 10
-13481.052485812232
 20
13951.462622131616
 30
11439.948750911224
 11
-13453.542095230243
 21
13951.564766850504
 31
11222.175329683287
 12
1835.4401330845517
 22
14008.547431063475
 32
9990.4509091569107
 13
-13481.052485812232
 23
13951.462622131616
 33
11439.948750911224
  0
3DFACE
  5
163
100
AcDbEntity
  8
0
 62
     7
100
AcDbFace
 10
1835.4401330845517
 20
14008.547431063475
 30
9990.4509091569107
 11
-13453.542095230243
 21
13951.564766850504
 31
11222.175329683287
 12
-13481.052485812232
 22
13951.462622131616
 32
11004.401908455349
 13
1835.4401330845517
 23
14008.547431063475
 33
9990.4509091569107
  0
3DFACE
  5
169
100
AcDbEntity
  8
0
 62
     7
100
AcDbFace
 10
1835.4401330845517
 20
14008.547431063475
 30
9990.4509091569107
 11
-13481.052485812232
 21
13951.462622131616
 31
11004.401908455349
 12
-13561.856883474229
 22
13951.161471322479
 32
10800.311476768846
 13
1835.4401330845517
 23
14008.547431063475
 33
9990.4509091569107
  0
3DFACE
  5
16F
100
AcDbEntity
  8
0
 62
     7
100
AcDbFace
 10
-13561.856883474229
 20
13951.161471322479
 30
10800.311476768846
 11
-13690.877991241148
 21
13950.680686697366
 31
10622.728480191798
 12
1835.4401330845517
 22
14008.547431063475
 32
9990.4509091569107
 13
-13561.856883474229
 23
13951.161471322479
 33
10800.311476768846
  0
3DFACE
  5
175
100
AcDbEntity
  8
0
 62
     7
100
AcDbFace
 10
1835.4401330845517
 20
14008.547431063475
 30
9990.4509091569107
 11
-13690.877991241148
 21
13950.680686697366
 31
10622.728480191798
 12
-13860.007631772261
 22
13950.050207225608
 32
10482.811348704838
 13
1835.4401330845517
 23
14008.547431063475
 33
9990.4509091569107
  0
3DFACE
  5
17B
100
AcDbEntity
  8
0
 62
     7
100
AcDbFace
 10
1835.4401330845517
 20
14008.547431063475
 30
9990.4509091569107
 11
-13860.007631772261
 21
13950.050207225608
 31
10482.811348704838
 12
-14058.620112629415
 22
13949.309658013666
 32
10389.350692037817
 13
1835.4401330845517
 23
14008.547431063475
 33
9990.4509091569107
  0
3DFACE
  5
181
100
AcDbEntity
  8
0
 62
     7
100
AcDbFace
 10
-14058.620112629415
 20
13949.309658013666
 30
10389.350692037817
 11
-14274.235286391875
 21
13948.505708631381
 31
10348.219831526818
 12
1835.4401330845517
 22
14008.547431063475
 32
9990.4509091569107
 13
-14058.620112629415
 23
13949.309658013666
 33
10389.350692037817
  0
3DFACE
  5
187
100
AcDbEntity
  8
0
 62
     7
100
AcDbFace
 10
1835.4401330845517
 20
14008.547431063475
 30
9990.4509091569107
 11
-14274.235286391875
 21
13948.505708631381
 31
10348.219831526818
 12
-25032.408544387577
 22
13908.409503678087
 32
9990.4509091569107
 13
1835.4401330845517
 23
14008.547431063475
 33
9990.4509091569107
  0
3DFACE
  5
18D
100
AcDbEntity
  8
0
 62
     7
100
AcDbFace
 10
-25032.408544387577
 20
13908.409503678087
 30
9990.4509091569107
 11
-14274.235286391875
 21
13948.505708631381
 31
10348.219831526818
 12
-14493.30488888019
 22
13947.689431438195
 32
10362.002324113377
 13
-25032.408544387577
 23
13908.409503678087
 33
9990.4509091569107
  0
3DFACE
  5
193
100
AcDbEntity
  8
0
 62
     7
100
AcDbFace
 10
-25032.408544387577
 20
13908.409503678087
 30
9990.4509091569107
 11
-14493.30488888019
 21
13947.689431438195
 31
10362.002324113377
 12
-14702.064038666229
 22
13946.911898793554
 32
10429.83346191863
 13
-25032.408544387577
 23
13908.409503678087
 33
9990.4509091569107
  0
3DFACE
  5
199
100
AcDbEntity
  8
0
 62
     7
100
AcDbFace
 10
-14702.064038666229
 20
13946.911898793554
 30
10429.83346191863
 11
-14887.396825509972
 21
13946.220660825215
 31
10547.449583486909
 12
-25032.408544387577
 22
13908.409503678087
 32
9990.4509091569107
 13
-14702.064038666229
 23
13946.911898793554
 33
10429.83346191863
  0
3DFACE
  5
19F
100
AcDbEntity
  8
0
 62
     7
100
AcDbFace
 10
-25032.408544387577
 20
13908.409503678087
 30
9990.4509091569107
 11
-14887.396825509972
 21
13946.220660825215
 31
10547.449583486909
 12
-15037.656990342301
 22
13945.660625987171
 32
10707.461046741391
 13
-25032.408544387577
 23
13908.409503678087
 33
9990.4509091569107
  0
3DFACE
  5
1A5
100
AcDbEntity
  8
0
 62
     7
100
AcDbFace
 10
-25032.408544387577
 20
13908.409503678087
 30
9990.4509091569107
 11
-15037.656990342301
 21
13945.660625987171
 31
10707.461046741391
 12
-15143.403191129413
 22
13945.267016596283
 32
10899.814521892866
 13
-25032.408544387577
 23
13908.409503678087
 33
9990.4509091569107
  0
3DFACE
  5
1AB
100
AcDbEntity
  8
0
 62
     7
100
AcDbFace
 10
-15143.403191129413
 20
13945.267016596283
 30
10899.814521892866
 11
-15197.990737796035
 21
13945.063607716427
 31
11112.42259035357
 12
-25032.408544387577
 22
13908.409503678087
 32
9990.4509091569107
 13
-15143.403191129413
 23
13945.267016596283
 33
10899.814521892866
  0
3DFACE
  5
1B1
100
AcDbEntity
  8
0
 62
     7
100
AcDbFace
 10
-25032.408544387577
 20
13908.409503678087
 30
9990.4509091569107
 11
-15197.990737796035
 21
13945.063607716427
 31
11112.42259035357
 12
-15197.990737796035
 22
13945.063607716427
 32
11331.927188455082
 13
-25032.408544387577
 23
13908.409503678087
 33
9990.4509091569107
  0
3DFACE
  5
1B7
100
AcDbEntity
  8
0
 62
     7
100
AcDbFace
 10
-25032.408544387577
 20
13908.409503678087
 30
9990.4509091569107
 11
-15197.990737796035
 21
13945.063607716427
 31
11331.927188455082
 12
-15143.403191129413
 22
13945.267016596283
 32
11544.536137473706
 13
-25032.408544387577
 23
13908.409503678087
 33
9990.4509091569107
  0
3DFACE
  5
1BD
100
AcDbEntity
  8
0
 62
     7
100
AcDbFace
 10
-15143.403191129413
 20
13945.267016596283
 30
11544.536137473706
 11
-15037.656990342301
 21
13945.660625987171
 31
11736.88873206726
 12
-25032.408544387577
 22
13908.409503678087
 32
9990.4509091569107
 13
-15143.403191129413
 23
13945.267016596283
 33
11544.536137473706
  0
3DFACE
  5
1C3
100
AcDbEntity
  8
0
 62
     7
100
AcDbFace
 10
-25032.408544387577
 20
13908.409503678087
 30
9990.4509091569107
 11
-15037.656990342301
 21
13945.660625987171
 31
11736.88873206726
 12
-14887.396825509972
 22
13946.220660825215
 32
11896.901075879665
 13
-25032.408544387577
 23
13908.409503678087
 33
9990.4509091569107
  0
3DFACE
  5
1C9
100
AcDbEntity
  8
0
 62
     7
100
AcDbFace
 10
-25032.408544387577
 20
13908.409503678087
 30
9990.4509091569107
 11
-14887.396825509972
 21
13946.220660825215
 31
11896.901075879665
 12
-14702.064038666229
 22
13946.911898793554
 32
12014.517197447944
 13
-25032.408544387577
 23
13908.409503678087
 33
9990.4509091569107
  0
3DFACE
  5
1CF
100
AcDbEntity
  8
0
 62
     7
100
AcDbFace
 10
-25032.408544387577
 20
13908.409503678087
 30
9990.4509091569107
 11
-14702.064038666229
 21
13946.911898793554
 31
12014.517197447944
 12
-25032.408544387577
 22
13908.409503678087
 32
16813.873109094566
 13
-25032.408544387577
 23
13908.409503678087
 33
9990.4509091569107
  0
3DFACE
  5
1D5
100
AcDbEntity
  8
0
 62
     7
100
AcDbFace
 10
-25032.408544387577
 20
13908.409503678087
 30
16813.873109094566
 11
-14702.064038666229
 21
13946.911898793554
 31
12014.517197447944
 12
-14493.30488888019
 22
13947.689431438195
 32
12082.347454695275
 13
-25032.408544387577
 23
13908.409503678087
 33
16813.873109094566
  0
3DFACE
  5
1DB
100
AcDbEntity
  8
0
 62
     7
100
AcDbFace
 10
-25032.408544387577
 20
13908.409503678087
 30
16813.873109094566
 11
-14493.30488888019
 21
13947.689431438195
 31
12082.347454695275
 12
-14274.235286391875
 22
13948.505708631381
 32
12096.130827839756
 13
-25032.408544387577
 23
13908.409503678087
 33
16813.873109094566
  0
3DFACE
  5
1E1
100
AcDbEntity
  8
0
 62
     7
100
AcDbFace
 10
-25032.408544387577
 20
13908.409503678087
 30
16813.873109094566
 11
-14274.235286391875
 21
13948.505708631381
 31
12096.130827839756
 12
1835.4401330845517
 22
14008.547431063475
 32
16813.873109094566
 13
-25032.408544387577
 23
13908.409503678087
 33
16813.873109094566
  0
3DFACE
  5
1E7
100
AcDbEntity
  8
0
 62
     7
100
AcDbFace
 10
1835.4401330845517
 20
14008.547431063475
 30
16813.873109094566
 11
-14274.235286391875
 21
13948.505708631381
 31
12096.130827839756
 12
-14058.620112629415
 22
13949.309658013666
 32
12054.999967328755
 13
1835.4401330845517
 23
14008.547431063475
 33
16813.873109094566
  0
3DFACE
  5
1ED
100
AcDbEntity
  8
0
 62
     7
100
AcDbFace
 10
1835.4401330845517
 20
14008.547431063475
 30
16813.873109094566
 11
-14058.620112629415
 21
13949.309658013666
 31
12054.999967328755
 12
-13860.007631772261
 22
13950.050207225608
 32
11961.539310661734
 13
1835.4401330845517
 23
14008.547431063475
 33
16813.873109094566
  0
3DFACE
  5
1F3
100
AcDbEntity
  8
0
 62
     7
100
AcDbFace
 10
1835.4401330845517
 20
14008.547431063475
 30
16813.873109094566
 11
-13860.007631772261
 21
13950.050207225608
 31
11961.539310661734
 12
1835.4401330845517
 22
14008.547431063475
 32
9990.4509091569107
 13
1835.4401330845517
 23
14008.547431063475
 33
16813.873109094566
  0
3DFACE
  5
1F9
100
AcDbEntity
  8
0
 62
     7
100
AcDbFace
 10
1835.4401330845517
 20
14008.547431063475
 30
9990.4509091569107
 11
-13860.007631772261
 21
13950.050207225608
 31
11961.539310661734
 12
-13690.877991241148
 22
13950.680686697366
 32
11821.622179174776
 13
1835.4401330845517
 23
14008.547431063475
 33
9990.4509091569107
  0
3DFACE
  5
1FF
100
AcDbEntity
  8
0
 62
     7
100
AcDbFace
 10
1835.4401330845517
 20
14008.547431063475
 30
9990.4509091569107
 11
-13690.877991241148
 21
13950.680686697366
 31
11821.622179174776
 12
-13561.856883474229
 22
13951.161471322479
 32
11644.039182597728
 13
1835.4401330845517
 23
14008.547431063475
 33
9990.4509091569107
  0
3DFACE
  5
205
100
AcDbEntity
  8
0
 62
     7
100
AcDbFace
 10
-13561.856883474229
 20
13951.161471322479
 30
11644.039182597728
 11
-13481.052485812232
 21
13951.462622131616
 31
11439.948750911224
 12
1835.4401330845517
 22
14008.547431063475
 32
9990.4509091569107
 13
-13561.856883474229
 23
13951.161471322479
 33
11644.039182597728
  0
3DFACE
  5
20B
100
AcDbEntity
  8
0
 62
     7
100
AcDbFace
 10
-13478.471570544458
 20
13258.968097638266
 30
11004.401908455349
 11
-13450.961179962469
 21
13259.071122915077
 31
11222.175329683287
 12
1838.0211584220665
 22
13316.053787128047
 32
9990.4509091569107
 13
-13478.471570544458
 23
13258.968097638266
 33
11004.401908455349
  0
3DFACE
  5
211
100
AcDbEntity
  8
0
 62
     7
100
AcDbFace
 10
1838.0211584220665
 20
13316.053787128047
 30
9990.4509091569107
 11
-13450.961179962469
 21
13259.071122915077
 31
11222.175329683287
 12
-13478.471570544458
 22
13258.968097638266
 32
11439.948750911224
 13
1838.0211584220665
 23
13316.053787128047
 33
9990.4509091569107
  0
3DFACE
  5
217
100
AcDbEntity
  8
0
 62
     7
100
AcDbFace
 10
1838.0211584220665
 20
13316.053787128047
 30
9990.4509091569107
 11
-13478.471570544458
 21
13258.968097638266
 31
11439.948750911224
 12
-13559.275968206455
 22
13258.666946829129
 32
11644.039182597728
 13
1838.0211584220665
 23
13316.053787128047
 33
9990.4509091569107
  0
3DFACE
  5
21D
100
AcDbEntity
  8
0
 62
     7
100
AcDbFace
 10
-13559.275968206455
 20
13258.666946829129
 30
11644.039182597728
 11
-13688.297075973374
 21
13258.186162204018
 31
11821.622179174776
 12
1838.0211584220665
 22
13316.053787128047
 32
9990.4509091569107
 13
-13559.275968206455
 23
13258.666946829129
 33
11644.039182597728
  0
3DFACE
  5
223
100
AcDbEntity
  8
0
 62
     7
100
AcDbFace
 10
1838.0211584220665
 20
13316.053787128047
 30
9990.4509091569107
 11
-13688.297075973374
 21
13258.186162204018
 31
11821.622179174776
 12
-13857.426716504488
 22
13257.555682732258
 32
11961.539310661734
 13
1838.0211584220665
 23
13316.053787128047
 33
9990.4509091569107
  0
3DFACE
  5
229
100
AcDbEntity
  8
0
 62
     7
100
AcDbFace
 10
1838.0211584220665
 20
13316.053787128047
 30
9990.4509091569107
 11
-13857.426716504488
 21
13257.555682732258
 31
11961.539310661734
 12
1838.0211584220665
 22
13316.053787128047
 32
16813.873109094566
 13
1838.0211584220665
 23
13316.053787128047
 33
9990.4509091569107
  0
3DFACE
  5
22F
100
AcDbEntity
  8
0
 62
     7
100
AcDbFace
 10
1838.0211584220665
 20
13316.053787128047
 30
16813.873109094566
 11
-13857.426716504488
 21
13257.555682732258
 31
11961.539310661734
 12
-14056.039197361641
 22
13256.816014078238
 32
12054.999967328755
 13
1838.0211584220665
 23
13316.053787128047
 33
16813.873109094566
  0
3DFACE
  5
235
100
AcDbEntity
  8
0
 62
     7
100
AcDbFace
 10
1838.0211584220665
 20
13316.053787128047
 30
16813.873109094566
 11
-14056.039197361641
 21
13256.816014078238
 31
12054.999967328755
 12
-14271.654371124101
 22
13256.012064695953
 32
12096.130827839756
 13
1838.0211584220665
 23
13316.053787128047
 33
16813.873109094566
  0
3DFACE
  5
23B
100
AcDbEntity
  8
0
 62
     7
100
AcDbFace
 10
1838.0211584220665
 20
13316.053787128047
 30
16813.873109094566
 11
-14271.654371124101
 21
13256.012064695953
 31
12096.130827839756
 12
-25029.828509677725
 22
13215.915859742659
 32
16813.873109094566
 13
1838.0211584220665
 23
13316.053787128047
 33
16813.873109094566
  0
3DFACE
  5
241
100
AcDbEntity
  8
0
 62
     7
100
AcDbFace
 10
-25029.828509677725
 20
13215.915859742659
 30
16813.873109094566
 11
-14271.654371124101
 21
13256.012064695953
 31
12096.130827839756
 12
-14490.723093054494
 22
13255.195787502769
 32
12082.347454695275
 13
-25029.828509677725
 23
13215.915859742659
 33
16813.873109094566
  0
3DFACE
  5
247
100
AcDbEntity
  8
0
 62
     7
100
AcDbFace
 10
-25029.828509677725
 20
13215.915859742659
 30
16813.873109094566
 11
-14490.723093054494
 21
13255.195787502769
 31
12082.347454695275
 12
-14699.484003956375
 22
13254.417374300205
 32
12014.517197447944
 13
-25029.828509677725
 23
13215.915859742659
 33
16813.873109094566
  0
3DFACE
  5
24D
100
AcDbEntity
  8
0
 62
     7
100
AcDbFace
 10
-25029.828509677725
 20
13215.915859742659
 30
16813.873109094566
 11
-14699.484003956375
 21
13254.417374300205
 31
12014.517197447944
 12
-25029.828509677725
 22
13215.915859742659
 32
9990.4509091569107
 13
-25029.828509677725
 23
13215.915859742659
 33
16813.873109094566
  0
3DFACE
  5
253
100
AcDbEntity
  8
0
 62
     7
100
AcDbFace
 10
-25029.828509677725
 20
13215.915859742659
 30
9990.4509091569107
 11
-14699.484003956375
 21
13254.417374300205
 31
12014.517197447944
 12
-14884.816790800118
 22
13253.727016889787
 32
11896.901075879665
 13
-25029.828509677725
 23
13215.915859742659
 33
9990.4509091569107
  0
3DFACE
  5
259
100
AcDbEntity
  8
0
 62
     7
100
AcDbFace
 10
-25029.828509677725
 20
13215.915859742659
 30
9990.4509091569107
 11
-14884.816790800118
 21
13253.727016889787
 31
11896.901075879665
 12
-15035.075194516605
 22
13253.166982051744
 32
11736.88873206726
 13
-25029.828509677725
 23
13215.915859742659
 33
9990.4509091569107
  0
3DFACE
  5
25F
100
AcDbEntity
  8
0
 62
     7
100
AcDbFace
 10
-15035.075194516605
 20
13253.166982051744
 30
11736.88873206726
 11
-15140.823156419559
 21
13252.772492102933
 31
11544.536137473706
 12
-25029.828509677725
 22
13215.915859742659
 32
9990.4509091569107
 13
-15035.075194516605
 23
13253.166982051744
 33
11736.88873206726
  0
3DFACE
  5
265
100
AcDbEntity
  8
0
 62
     7
100
AcDbFace
 10
-25029.828509677725
 20
13215.915859742659
 30
9990.4509091569107
 11
-15140.823156419559
 21
13252.772492102933
 31
11544.536137473706
 12
-15195.410703086181
 22
13252.569083223079
 32
11331.927188455082
 13
-25029.828509677725
 23
13215.915859742659
 33
9990.4509091569107
  0
3DFACE
  5
26B
100
AcDbEntity
  8
0
 62
     7
100
AcDbFace
 10
-25029.828509677725
 20
13215.915859742659
 30
9990.4509091569107
 11
-15195.410703086181
 21
13252.569083223079
 31
11331.927188455082
 12
-15195.410703086181
 22
13252.569083223079
 32
11112.42259035357
 13
-25029.828509677725
 23
13215.915859742659
 33
9990.4509091569107
  0
3DFACE
  5
271
100
AcDbEntity
  8
0
 62
     7
100
AcDbFace
 10
-15195.410703086181
 20
13252.569083223079
 30
11112.42259035357
 11
-15140.823156419559
 21
13252.772492102933
 31
10899.814521892866
 12
-25029.828509677725
 22
13215.915859742659
 32
9990.4509091569107
 13
-15195.410703086181
 23
13252.569083223079
 33
11112.42259035357
  0
3DFACE
  5
277
100
AcDbEntity
  8
0
 62
     7
100
AcDbFace
 10
-25029.828509677725
 20
13215.915859742659
 30
9990.4509091569107
 11
-15140.823156419559
 21
13252.772492102933
 31
10899.814521892866
 12
-15035.075194516605
 22
13253.166982051744
 32
10707.461046741391
 13
-25029.828509677725
 23
13215.915859742659
 33
9990.4509091569107
  0
3DFACE
  5
27D
100
AcDbEntity
  8
0
 62
     7
100
AcDbFace
 10
-25029.828509677725
 20
13215.915859742659
 30
9990.4509091569107
 11
-15035.075194516605
 21
13253.166982051744
 31
10707.461046741391
 12
-14884.816790800118
 22
13253.727016889787
 32
10547.449583486909
 13
-25029.828509677725
 23
13215.915859742659
 33
9990.4509091569107
  0
3DFACE
  5
283
100
AcDbEntity
  8
0
 62
     7
100
AcDbFace
 10
-14884.816790800118
 20
13253.727016889787
 30
10547.449583486909
 11
-14699.484003956375
 21
13254.417374300205
 31
10429.83346191863
 12
-25029.828509677725
 22
13215.915859742659
 32
9990.4509091569107
 13
-14884.816790800118
 23
13253.727016889787
 33
10547.449583486909
  0
3DFACE
  5
289
100
AcDbEntity
  8
0
 62
     7
100
AcDbFace
 10
-25029.828509677725
 20
13215.915859742659
 30
9990.4509091569107
 11
-14699.484003956375
 21
13254.417374300205
 31
10429.83346191863
 12
-14490.723093054494
 22
13255.195787502769
 32
10362.002324113377
 13
-25029.828509677725
 23
13215.915859742659
 33
9990.4509091569107
  0
3DFACE
  5
28F
100
AcDbEntity
  8
0
 62
     7
100
AcDbFace
 10
-25029.828509677725
 20
13215.915859742659
 30
9990.4509091569107
 11
-14490.723093054494
 21
13255.195787502769
 31
10362.002324113377
 12
-14271.654371124101
 22
13256.012064695953
 32
10348.219831526818
 13
-25029.828509677725
 23
13215.915859742659
 33
9990.4509091569107
  0
3DFACE
  5
295
100
AcDbEntity
  8
0
 62
     7
100
AcDbFace
 10
-25029.828509677725
 20
13215.915859742659
 30
9990.4509091569107
 11
-14271.654371124101
 21
13256.012064695953
 31
10348.219831526818
 12
1838.0211584220665
 22
13316.053787128047
 32
9990.4509091569107
 13
-25029.828509677725
 23
13215.915859742659
 33
9990.4509091569107
  0
3DFACE
  5
29B
100
AcDbEntity
  8
0
 62
     7
100
AcDbFace
 10
1838.0211584220665
 20
13316.053787128047
 30
9990.4509091569107
 11
-14271.654371124101
 21
13256.012064695953
 31
10348.219831526818
 12
-14056.039197361641
 22
13256.816014078238
 32
10389.350692037817
 13
1838.0211584220665
 23
13316.053787128047
 33
9990.4509091569107
  0
3DFACE
  5
2A1
100
AcDbEntity
  8
0
 62
     7
100
AcDbFace
 10
1838.0211584220665
 20
13316.053787128047
 30
9990.4509091569107
 11
-14056.039197361641
 21
13256.816014078238
 31
10389.350692037817
 12
-13857.426716504488
 22
13257.555682732258
 32
10482.811348704838
 13
1838.0211584220665
 23
13316.053787128047
 33
9990.4509091569107
  0
3DFACE
  5
2A7
100
AcDbEntity
  8
0
 62
     7
100
AcDbFace
 10
-13857.426716504488
 20
13257.555682732258
 30
10482.811348704838
 11
-13688.297075973374
 21
13258.186162204018
 31
10622.728480191798
 12
1838.0211584220665
 22
13316.053787128047
 32
9990.4509091569107
 13
-13857.426716504488
 23
13257.555682732258
 33
10482.811348704838
  0
3DFACE
  5
2AD
100
AcDbEntity
  8
0
 62
     7
100
AcDbFace
 10
1838.0211584220665
 20
13316.053787128047
 30
9990.4509091569107
 11
-13688.297075973374
 21
13258.186162204018
 31
10622.728480191798
 12
-13559.275968206455
 22
13258.666946829129
 32
10800.311476768846
 13
1838.0211584220665
 23
13316.053787128047
 33
9990.4509091569107
  0
3DFACE
  5
2B3
100
AcDbEntity
  8
0
 62
     7
100
AcDbFace
 10
1838.0211584220665
 20
13316.053787128047
 30
9990.4509091569107
 11
-13559.275968206455
 21
13258.666946829129
 31
10800.311476768846
 12
-13478.471570544458
 22
13258.968097638266
 32
11004.401908455349
 13
1838.0211584220665
 23
13316.053787128047
 33
9990.4509091569107
  0
ENDSEC
  0
EOF
